<svg id="Layer_1" data-name="Layer 1" xmlns="http://www.w3.org/2000/svg" viewBox="0 0 1084.72 244.6"><defs><style>.cls-1,.cls-2{fill:#ee2d29;}.cls-2{stroke:#ee2f2a;stroke-miterlimit:10;}</style></defs><path class="cls-1" d="M83.63,6.38c-8.39,0-15.19,13.18-15.19,29.43,0,14.3,5.27,26.21,12.24,28.88V236.14H86V64.9c7.27-2.2,12.83-14.39,12.83-29.09C98.82,19.56,92,6.38,83.63,6.38Zm0,54.06c-6.36,0-11.52-10.9-11.52-24.35s5.16-24.36,11.52-24.36S95.16,22.64,95.16,36.09,90,60.44,83.63,60.44Z" transform="translate(-8.13 -6.38)"/><path class="cls-2" d="M57.34,116c-.42-1.45,1-1.52,1.37-2.36-.65-.71-1.29-1.45-2-2.15a1.3,1.3,0,0,1-.46-1.31.78.78,0,0,0,0-.45,6.41,6.41,0,0,1-.16-2.92.68.68,0,0,0,0-.4c-.41-.76,0-1.5,0-2.24a14.08,14.08,0,0,0-.44-4.52s0-.07,0-.11a5.09,5.09,0,0,0-1.43-2.59,2.33,2.33,0,0,1-.41-1.14c-.07-.35.17-.54.53-.41a3.5,3.5,0,0,0,2.54-.25c.63-.25,1.3-.42,1.92-.69a9.12,9.12,0,0,0,1.34-.8c.62-.43,1.19-.94,1.83-1.32a1.88,1.88,0,0,1,2.22-.06l.14-.08c.57-.94,1.37-.85,2.11-.27s.94.56,1.23-.33a2.14,2.14,0,0,1,1.23-1.42c3-1.2,6-2.62,9.45-2.24a19.19,19.19,0,0,0,3.86-.11,3.33,3.33,0,0,0,1.59-.65,3.37,3.37,0,0,1,3.36-.51,7.25,7.25,0,0,0,3.58-.14,12.74,12.74,0,0,1,2-.11c.76,0,1.54,0,2.3-.06a2.2,2.2,0,0,1,2.28.93,5.43,5.43,0,0,0,.42.53c.56.62,1,.67,1.62.15a3.81,3.81,0,0,1,2.37-.82,2.7,2.7,0,0,0,1.89-.9c1-1,1.6-1.09,2.79-.33.32.2.64.4,1,.57a1.75,1.75,0,0,0,1.83,0,2.87,2.87,0,0,1,3.64.48,1.94,1.94,0,0,0,1.49.56l3.3,0c.41,0,.68.16.72.56s.23.91-.3,1.15-.86.3-1.29.45-.69.26-1.12.42a1.68,1.68,0,0,0,.36.25c1.07.37,1,1.32.59,2.06-.13.25-.25.51-.37.76a3.92,3.92,0,0,0,0,2.72c.23.92.37,1.86.53,2.79a1.53,1.53,0,0,1-.51,1.44,2.3,2.3,0,0,0-.72,1.56,2.4,2.4,0,0,1-1.8,2.18,1.35,1.35,0,0,0-1,1.13c-.16.77-.38.92-1.17.94a.89.89,0,0,0-.94,1.14,29.86,29.86,0,0,0,.88,3c.08.25.28.49.27.73a1.11,1.11,0,0,0,.7,1.06,13.42,13.42,0,0,1,1.28.84A3,3,0,0,1,115,115a2.39,2.39,0,0,0,1.3,2.17c.53.29,1,.66,1.52,1a3.26,3.26,0,0,1,1.46,2.08c.55,2.59,1.12,5.17,1.68,7.76.19.87.34,1.75.58,2.61a1.1,1.1,0,0,1-.38,1.31.78.78,0,0,0-.21,1.09c.28.64.49,1.32.81,1.94a15.12,15.12,0,0,1,1.39,7.92,13,13,0,0,0,.27,4.12,3.23,3.23,0,0,1-.3,2.38,4,4,0,0,0-.18,3.18,8.12,8.12,0,0,1,.26,2.46,2.64,2.64,0,0,1-1.41,2.2,1.58,1.58,0,0,1-.91.19.88.88,0,0,0-.9.53.83.83,0,0,0,0,1c.8,1.05,1.57,2.13,2.36,3.19a5,5,0,0,1,1.13,3.55,1.87,1.87,0,0,0,.5,1.39,10.24,10.24,0,0,1,.62,1.29c.08.15.26.36.39.36a25.76,25.76,0,0,0,3-.13,2.11,2.11,0,0,1,2.14,1.08.76.76,0,0,0,.5.33c.7.14,1.42.23,2.13.37,1.23.24,1.5.87.74,1.86a.69.69,0,0,0,0,1c.68.89,1.32,1.8,2,2.69.31.42.28.67-.19,1q-10.53,6.32-21,12.65a141.45,141.45,0,0,0-12.41,7.83c-1.39,1.05-2.81,2.07-4.14,3.19a11.22,11.22,0,0,1-5,2.33c-3.29.71-6.55,1.59-9.82,2.43-1.19.3-2.36.68-3.55,1-1,.29-1.25.19-1.89-.63a2.46,2.46,0,0,1-.33-3,1.44,1.44,0,0,0,.18-.65c0-.64,0-1.28,0-1.81-.92-.46-1.86-.91-2.79-1.39a1.59,1.59,0,0,0-1.47,0c-.55.23-.76.1-.72-.49.06-.88-.16-1-1.09-.92A3.06,3.06,0,0,1,68,195.48a1.47,1.47,0,0,0-.78-.81c-.63-.33-1.13-.95-2-.61-.06,0-.24-.17-.3-.29a.56.56,0,0,1-.06-.38c.46-1.58-.56-2.52-1.57-3.36-2.3-1.94-4.67-3.81-7-5.69L44.77,175.2q-7.59-6.06-15.19-12.15c-3.4-2.72-6.78-5.47-10.18-8.2s-6.91-5.5-10.38-8.23a.85.85,0,0,1-.37-.92q.69-4.17,1.35-8.36a1.46,1.46,0,0,1,.82-1.08c1.51-.86,3-1.79,4.5-2.64a2.5,2.5,0,0,1,1.32-.39,2.41,2.41,0,0,0,2.42-1,2.91,2.91,0,0,1,1.12-.83,2.11,2.11,0,0,1,1.85.24,2,2,0,0,0,1.16.25,18.5,18.5,0,0,1,5-.19l.34,0c.34.08.79.33,1,.2a5.65,5.65,0,0,0,1.82-1.48,5.17,5.17,0,0,1,2.18-1.92c.64-.29,1.29-.54,2-.79a5.33,5.33,0,0,0,2.41-1.53,2.41,2.41,0,0,1,1.87-.67,7.89,7.89,0,0,0,1.69-.2,2.17,2.17,0,0,0,.81-3s0-.07-.08-.08c-.21-.11-.61-.22-.61-.31a7.27,7.27,0,0,1,.25-1.38.63.63,0,0,1,.22-.33,1.46,1.46,0,0,0,.48-1.27c0-1,.27-1.23,1.28-1.17q1.14.08,2.28.12a1,1,0,0,0,1.09-.79c.42-1.29.82-1.57,2.17-1.45a9,9,0,0,0,3.26-.24,5.11,5.11,0,0,1,3,.17A14.48,14.48,0,0,0,57.34,116Zm15.74,82a2.53,2.53,0,0,1,2.17.42c.68.36,1.43.58,2.13.91.27.14.69.41.69.61a8.2,8.2,0,0,1-.34,2.9,2.23,2.23,0,0,0,.34,2.55.73.73,0,0,0,.92.3c2-.58,4-1.15,6-1.67,2.43-.63,4.84-1.3,7.3-1.76a12.54,12.54,0,0,0,5.58-2.73,72.29,72.29,0,0,1,8.6-6.15l7.12-4.27L132,178.07l2.91-1.74c-.08-.13-.13-.22-.18-.29l-1.92-2.62a1,1,0,0,1,.05-1.44,4.93,4.93,0,0,0,.42-.71c-.3-.08-.49-.14-.7-.18-.72-.12-1.47-.19-2.18-.37a1.49,1.49,0,0,1-.93-.59,1.16,1.16,0,0,0-1.44-.74,7.56,7.56,0,0,1-3.38,0,.92.92,0,0,1-.81-.89,1.55,1.55,0,0,0-.37-.9,2.41,2.41,0,0,1-.71-2,4,4,0,0,0-.81-2.72c-.83-1.17-1.67-2.34-2.51-3.5a1.38,1.38,0,0,1-.19-1.59,1.81,1.81,0,0,1,1.45-1.06,1.83,1.83,0,0,0,1.69-1.32,4.1,4.1,0,0,0-.14-2.74,4.45,4.45,0,0,1,.19-3.57,3,3,0,0,0,.29-1.81,20.25,20.25,0,0,1-.28-5.38,13.22,13.22,0,0,0-1.12-6.14c-.4-.84-.72-1.71-1.08-2.57a1.33,1.33,0,0,1,.34-1.74.88.88,0,0,0,.21-.72c-.66-3.27-1.36-6.53-2-9.79a3.4,3.4,0,0,0-1.73-2.47c-.45-.24-.86-.56-1.29-.83a2.83,2.83,0,0,1-1.43-2.44,2.43,2.43,0,0,0-1.06-2c-.45-.31-.91-.61-1.38-.89a1.51,1.51,0,0,1-.87-1.42.81.81,0,0,0-.14-.42,7.81,7.81,0,0,1-1-3.28,1.68,1.68,0,0,1,1.66-2.09.65.65,0,0,0,.47-.4,2,2,0,0,1,1.44-1.59,1.87,1.87,0,0,0,1.42-1.78,2.47,2.47,0,0,1,.8-1.71,1.26,1.26,0,0,0,.38-1.29c-.19-1-.43-1.93-.57-2.9a4.07,4.07,0,0,1,.48-3.17,1.82,1.82,0,0,0,.28-.85.59.59,0,0,0-.3-.49c-.44-.12-.82-.28-.86-.78s.37-.78.77-1,1.12-.37,1.66-.57c.14,0,.23-.2.34-.31-.15-.08-.29-.22-.44-.22-1,0-1.93,0-2.89.07a2.61,2.61,0,0,1-2.07-.74,2.14,2.14,0,0,0-2.84-.37,2.5,2.5,0,0,1-2.55,0c-.36-.2-.71-.42-1.07-.64-.78-.48-1.06-.5-1.67.18a4,4,0,0,1-2.75,1.28,3.83,3.83,0,0,0-1.62.59c-1.2.79-2.11.72-2.9-.49a2,2,0,0,0-2.29-.9,16,16,0,0,1-2.08,0A8.6,8.6,0,0,0,91,87.2a8.12,8.12,0,0,1-4.32,0,2.39,2.39,0,0,0-2.42.51,3.4,3.4,0,0,1-1.67.73,31.88,31.88,0,0,1-4.26.17,12.4,12.4,0,0,0-5.3.71c-.82.35-1.67.62-2.51.9a3,3,0,0,0-2.33,2c-.24.83-1.07,1-1.8.49L66,92.52c-.62-.47-.65-.47-1.13.12a.75.75,0,0,1-1.05.24,1.28,1.28,0,0,0-1.45,0c-.53.32-1,.7-1.53,1A6,6,0,0,1,59.18,95c-1.52.39-2.84,1.49-4.55,1.22.22.35.49.59.69.88a7.77,7.77,0,0,1,.75,1.31,6.9,6.9,0,0,1,.62,3.59,1.48,1.48,0,0,0,.1.49,4,4,0,0,1-.1,2.41,1.93,1.93,0,0,0,0,.76c0,.48.14,1,.17,1.45s0,1.28,0,1.92c0,.43.06.85.11,1.28a.93.93,0,0,0,.15.51q.93,1,1.89,2a1,1,0,0,1,0,1.57c-.31.29-.66.54-1,.78.17.18.44.34.43.47s-.23.37-.4.49a2.35,2.35,0,0,1-2.22.26,4.68,4.68,0,0,0-2.73-.34,11.07,11.07,0,0,1-4,.3,1,1,0,0,0-1.15.83A1.66,1.66,0,0,1,46,118.69c-.74,0-1.48,0-2.21-.11-.39,0-.51.09-.5.46a2,2,0,0,1-.63,1.75.85.85,0,0,0-.13.78c.18.46.58.83.74,1.29a2.74,2.74,0,0,1-1.87,3.28,9,9,0,0,1-1.47.12,2.36,2.36,0,0,0-1.88.88,3.37,3.37,0,0,1-1.2.82c-.79.37-1.61.67-2.42,1a5.08,5.08,0,0,0-2.45,2,5.92,5.92,0,0,1-2.12,1.65c-.33.18-.92-.09-1.39-.16l-.34-.05a15.78,15.78,0,0,0-4.75.22,2,2,0,0,1-1.67-.32,1.34,1.34,0,0,0-1.85.15,3.67,3.67,0,0,0-.47.5,2.54,2.54,0,0,1-2.55,1,2.16,2.16,0,0,0-1.15.31c-1.42.81-2.77,1.71-4.21,2.48a1.37,1.37,0,0,0-.82,1.15c-.38,2.49-.77,5-1.2,7.47a.84.84,0,0,0,.35.95l10.36,8.26,29.4,23.52c3.23,2.58,6.51,5.1,9.73,7.7,1.8,1.45,3.54,3,5.27,4.49a2.6,2.6,0,0,1,1,2.81s0,.11,0,.21a1.25,1.25,0,0,1,1.56.57.45.45,0,0,0,.28.18c.66.1.93.58,1.15,1.13a2.39,2.39,0,0,0,2.57,1.5C72.3,196.5,72.8,196.84,73.08,198Z" transform="translate(-8.13 -6.38)"/><path class="cls-1" d="M92.11,251c2.7-3.51,6.31-7.7,9.33-12.27,4.21-6.36,2.57-12.49-4-16.35s-13.76-4.73-21-5.5c-6.38-.67-12.89-.65-19.11-2-8.13-1.74-15.85-4.92-22.11-10.76-11-10.31-12.58-28.55-3.66-40.8,6.68-9.16,15.87-14.73,26.07-18.93,10.65-4.37,21.88-6.55,33.07-9,10.94-2.38,21.91-5.26,31-12.29,7.9-6.13,13.59-14.57,9.87-25.84-2.32-7-7.42-11.76-13.66-15.28-15-8.41-30.8-8.5-46.8-3.89-6.27,1.81-12.18,4.89-18.3,7.26-3.67,1.42-7.4,2.69-11.22,3.81A1.32,1.32,0,0,1,40,87.4a12.35,12.35,0,0,1,7.7-7.05c1.67-.58,3.56-.56,5.2-1.2,3.82-1.49,7.48-3.45,11.35-4.79,4.41-1.54,8.92-3.15,13.51-3.76a78.78,78.78,0,0,1,16.88-.47,69.16,69.16,0,0,1,28.25,8.35,42.33,42.33,0,0,1,13.2,10.92c6.75,8.71,7,17.95,2.13,27.42-6.41,12.32-16.46,20.74-29.06,26.31C98.19,148,86.5,150.2,75.05,153.25c-7.08,1.88-14.08,4-20.25,8.15C44.13,168.56,39.66,178.59,41,191.31c.58,5.64,3.72,9.5,8.3,12.52,5.87,3.87,12.52,5.24,19.26,6.43,9.66,1.69,19.35,3.22,28.94,5.25,4.12.87,7.93,3,9.94,7.12,2.76,5.69,1,11-1.85,16C102.27,244.26,95.71,248.54,92.11,251Z" transform="translate(-8.13 -6.38)"/><path class="cls-1" d="M199,101.26a23.1,23.1,0,0,1-8.28-1.46,19.28,19.28,0,0,1-11-10.47,21.16,21.16,0,0,1,0-16,19.33,19.33,0,0,1,4.4-6.33,19.74,19.74,0,0,1,6.63-4.15,24.43,24.43,0,0,1,17.35.27,17.69,17.69,0,0,1,6.8,5.09l-5.72,5.28a13.43,13.43,0,0,0-4.4-3.38A12.42,12.42,0,0,0,199.5,69a13.41,13.41,0,0,0-4.95.88,11.23,11.23,0,0,0-3.91,2.53,11.59,11.59,0,0,0-2.56,3.91,14.37,14.37,0,0,0,0,10,11.65,11.65,0,0,0,2.56,3.9,11.23,11.23,0,0,0,3.91,2.53,13.41,13.41,0,0,0,4.95.88,12.42,12.42,0,0,0,5.28-1.13,13.08,13.08,0,0,0,4.4-3.43l5.72,5.28a17.94,17.94,0,0,1-6.8,5.11A22.59,22.59,0,0,1,199,101.26Z" transform="translate(-8.13 -6.38)"/><path class="cls-1" d="M233.32,101a17.36,17.36,0,0,1-8.39-2,15.13,15.13,0,0,1-5.77-5.42,15.65,15.65,0,0,1,0-15.73,14.9,14.9,0,0,1,5.77-5.39,19,19,0,0,1,16.75,0,14.68,14.68,0,0,1,5.78,5.37,15,15,0,0,1-5.78,21.17A17.38,17.38,0,0,1,233.32,101Zm0-7a7.53,7.53,0,0,0,3.85-1,7,7,0,0,0,2.7-2.83,10.21,10.21,0,0,0,0-8.77,7.1,7.1,0,0,0-2.7-2.81,8,8,0,0,0-7.7,0,7.28,7.28,0,0,0-2.72,2.81,9.94,9.94,0,0,0,0,8.77A7.2,7.2,0,0,0,229.47,93,7.53,7.53,0,0,0,233.32,94Z" transform="translate(-8.13 -6.38)"/><path class="cls-1" d="M273.25,70.57a13.84,13.84,0,0,1,6.3,1.4,10.21,10.21,0,0,1,4.37,4.29,15.25,15.25,0,0,1,1.6,7.4V100.6h-8.58V85c0-2.38-.53-4.14-1.57-5.28a5.71,5.71,0,0,0-4.43-1.7,7.72,7.72,0,0,0-3.66.85,6,6,0,0,0-2.53,2.61,9.89,9.89,0,0,0-.9,4.51V100.6h-8.58V71h8.19v8.2l-1.54-2.48a10.92,10.92,0,0,1,4.57-4.56A14,14,0,0,1,273.25,70.57Z" transform="translate(-8.13 -6.38)"/><path class="cls-1" d="M303.23,101a28.67,28.67,0,0,1-7.29-.91,17.88,17.88,0,0,1-5.53-2.28l2.86-6.16a19.15,19.15,0,0,0,4.81,2.06,19.86,19.86,0,0,0,5.48.8,9,9,0,0,0,4.2-.71,2.2,2.2,0,0,0,1.24-2,1.69,1.69,0,0,0-1-1.57,8.31,8.31,0,0,0-2.56-.8c-1.06-.18-2.23-.37-3.49-.55s-2.54-.43-3.82-.74a12.89,12.89,0,0,1-3.52-1.4,7.22,7.22,0,0,1-2.56-2.53,8.79,8.79,0,0,1,.66-9.08,10.69,10.69,0,0,1,4.7-3.38,19.63,19.63,0,0,1,7.37-1.24,29.82,29.82,0,0,1,6.16.66,16.66,16.66,0,0,1,5.23,1.93l-2.86,6.1A14.53,14.53,0,0,0,309,77.53a20.11,20.11,0,0,0-4.21-.47,8.66,8.66,0,0,0-4.18.77,2.26,2.26,0,0,0-1.32,2,1.79,1.79,0,0,0,1,1.65,8.75,8.75,0,0,0,2.56.88c1.06.22,2.23.41,3.49.58a31.12,31.12,0,0,1,3.83.74,14.07,14.07,0,0,1,3.49,1.4,7.4,7.4,0,0,1,2.56,2.48,7.56,7.56,0,0,1,1,4.1,7.68,7.68,0,0,1-1.65,4.86,10.9,10.9,0,0,1-4.76,3.33A20.8,20.8,0,0,1,303.23,101Z" transform="translate(-8.13 -6.38)"/><path class="cls-1" d="M337.16,101a19.05,19.05,0,0,1-8.88-2,14.39,14.39,0,0,1-8-13.25,15,15,0,0,1,2.06-7.9A14.55,14.55,0,0,1,328,72.52a17.67,17.67,0,0,1,15.92-.11,13.83,13.83,0,0,1,5.53,5.28,15.94,15.94,0,0,1,2,8.23c0,.33,0,.7,0,1.12s-.08.82-.11,1.19h-24v-5h19.53l-3.3,1.49a8.29,8.29,0,0,0-.94-4A6.76,6.76,0,0,0,340,78a7.53,7.53,0,0,0-3.85-1,7.67,7.67,0,0,0-3.88,1,6.66,6.66,0,0,0-2.61,2.7,8.42,8.42,0,0,0-.94,4.1v1.32a8.37,8.37,0,0,0,1.07,4.26,7,7,0,0,0,3,2.8,10.28,10.28,0,0,0,4.59,1,11,11,0,0,0,4.15-.72,10.26,10.26,0,0,0,3.28-2.14l4.56,5a13.26,13.26,0,0,1-5.11,3.54A18.86,18.86,0,0,1,337.16,101Z" transform="translate(-8.13 -6.38)"/><path class="cls-1" d="M361.47,66.89a5.42,5.42,0,0,1-3.85-1.38,4.67,4.67,0,0,1,0-6.82,5.42,5.42,0,0,1,3.85-1.37,5.65,5.65,0,0,1,3.85,1.29,4.21,4.21,0,0,1,1.49,3.33,4.7,4.7,0,0,1-1.46,3.54A5.35,5.35,0,0,1,361.47,66.89Zm-4.29,33.71V71h8.58V100.6Z" transform="translate(-8.13 -6.38)"/><path class="cls-1" d="M373.73,100.6V59.79h8.58V100.6Z" transform="translate(-8.13 -6.38)"/><path class="cls-1" d="M418.56,101a15,15,0,0,1-7.54-1.9,13.91,13.91,0,0,1-5.3-5.3,17.55,17.55,0,0,1,0-16.12,13.79,13.79,0,0,1,5.3-5.28,15.19,15.19,0,0,1,7.54-1.87,12.66,12.66,0,0,1,6.54,1.65,10.87,10.87,0,0,1,4.35,5A20.71,20.71,0,0,1,431,85.81a21.38,21.38,0,0,1-1.49,8.55,10.6,10.6,0,0,1-4.26,5A12.85,12.85,0,0,1,418.56,101ZM420,94a7.43,7.43,0,0,0,3.8-1,7.27,7.27,0,0,0,2.72-2.83,9.94,9.94,0,0,0,0-8.77,7.35,7.35,0,0,0-2.72-2.81,7.43,7.43,0,0,0-3.8-1,7.53,7.53,0,0,0-3.85,1,7.35,7.35,0,0,0-2.72,2.81,9.94,9.94,0,0,0,0,8.77A7.27,7.27,0,0,0,416.19,93,7.53,7.53,0,0,0,420,94Zm7.76,6.6v-6l.16-8.8L427.41,77V59.79H436V100.6Z" transform="translate(-8.13 -6.38)"/><path class="cls-1" d="M458.6,101a19,19,0,0,1-8.88-2,14.38,14.38,0,0,1-8-13.25,15,15,0,0,1,2.07-7.9,14.59,14.59,0,0,1,5.63-5.39,17.69,17.69,0,0,1,15.93-.11,13.81,13.81,0,0,1,5.52,5.28,15.85,15.85,0,0,1,2,8.23c0,.33,0,.7-.06,1.12s-.07.82-.11,1.19h-24v-5h19.52l-3.3,1.49a8.29,8.29,0,0,0-.93-4A6.86,6.86,0,0,0,461.4,78a7.51,7.51,0,0,0-3.85-1,7.64,7.64,0,0,0-3.87,1,6.74,6.74,0,0,0-2.62,2.7,8.53,8.53,0,0,0-.93,4.1v1.32a8.37,8.37,0,0,0,1.07,4.26,7,7,0,0,0,3,2.8,10.28,10.28,0,0,0,4.59,1,11.07,11.07,0,0,0,4.15-.72,10.22,10.22,0,0,0,3.27-2.14l4.57,5a13.22,13.22,0,0,1-5.12,3.54A18.81,18.81,0,0,1,458.6,101Z" transform="translate(-8.13 -6.38)"/><path class="cls-1" d="M494.18,100.6V59.79h8.58V100.6Z" transform="translate(-8.13 -6.38)"/><path class="cls-1" d="M510,77.72l-.55-15.62h7.32l-.61,15.62Z" transform="translate(-8.13 -6.38)"/><path class="cls-1" d="M542.69,101.26a23.39,23.39,0,0,1-8.44-1.48,20,20,0,0,1-6.71-4.18,19,19,0,0,1-4.4-6.33,20.76,20.76,0,0,1,0-15.84,18.69,18.69,0,0,1,4.43-6.32,20.19,20.19,0,0,1,6.71-4.18,24.25,24.25,0,0,1,16.74,0,20.07,20.07,0,0,1,6.66,4.18,19.12,19.12,0,0,1,6,14.24,19.74,19.74,0,0,1-1.59,8,19.1,19.1,0,0,1-4.43,6.32A20.34,20.34,0,0,1,551,99.78,22.76,22.76,0,0,1,542.69,101.26Zm-.05-7.59a12.44,12.44,0,0,0,4.75-.88,11.42,11.42,0,0,0,6.38-6.43,14.22,14.22,0,0,0,0-10,11.52,11.52,0,0,0-2.53-3.91,11,11,0,0,0-3.82-2.53,12.66,12.66,0,0,0-4.78-.88,12.49,12.49,0,0,0-4.76.88,11.47,11.47,0,0,0-6.38,6.44,14.14,14.14,0,0,0,0,10A11.66,11.66,0,0,0,534,90.26a11.14,11.14,0,0,0,3.82,2.53A12.72,12.72,0,0,0,542.64,93.67Z" transform="translate(-8.13 -6.38)"/><path class="cls-1" d="M569.81,100.6V71H578v8.36L576.85,77a9.51,9.51,0,0,1,4.23-4.76,14.42,14.42,0,0,1,7.1-1.62v7.92c-.37,0-.7-.06-1-.08s-.61,0-.94,0a8,8,0,0,0-5.69,2q-2.17,2-2.17,6.24v14Z" transform="translate(-8.13 -6.38)"/><path class="cls-1" d="M605.72,101a15,15,0,0,1-7.53-1.9,13.86,13.86,0,0,1-5.31-5.3,17.63,17.63,0,0,1,0-16.12,13.74,13.74,0,0,1,5.31-5.28,15.16,15.16,0,0,1,7.53-1.87,12.67,12.67,0,0,1,6.55,1.65,10.79,10.79,0,0,1,4.34,5,20.55,20.55,0,0,1,1.54,8.58,21.39,21.39,0,0,1-1.48,8.55,10.6,10.6,0,0,1-4.26,5A12.89,12.89,0,0,1,605.72,101Zm1.49-7A7.39,7.39,0,0,0,611,93a7.23,7.23,0,0,0,2.73-2.83,10,10,0,0,0,0-8.77A7.31,7.31,0,0,0,611,78.6a7.39,7.39,0,0,0-3.79-1,7.51,7.51,0,0,0-3.85,1,7.21,7.21,0,0,0-2.72,2.81,9.94,9.94,0,0,0,0,8.77A7.13,7.13,0,0,0,603.36,93,7.51,7.51,0,0,0,607.21,94Zm7.75,6.6v-6l.17-8.8L614.58,77V59.79h8.58V100.6Z" transform="translate(-8.13 -6.38)"/><path class="cls-1" d="M631.08,100.6V71h8.19v8.36L638.12,77a9.51,9.51,0,0,1,4.23-4.76,14.42,14.42,0,0,1,7.1-1.62v7.92c-.37,0-.7-.06-1-.08s-.61,0-.94,0a8,8,0,0,0-5.69,2q-2.18,2-2.17,6.24v14Z" transform="translate(-8.13 -6.38)"/><path class="cls-1" d="M669,101a19.05,19.05,0,0,1-8.88-2,14.39,14.39,0,0,1-8-13.25,15,15,0,0,1,2.06-7.9,14.55,14.55,0,0,1,5.64-5.39,17.67,17.67,0,0,1,15.92-.11,13.83,13.83,0,0,1,5.53,5.28,15.94,15.94,0,0,1,2,8.23c0,.33,0,.7,0,1.12s-.08.82-.11,1.19h-24v-5H678.6l-3.3,1.49a8.18,8.18,0,0,0-.94-4A6.76,6.76,0,0,0,671.78,78a7.53,7.53,0,0,0-3.85-1,7.67,7.67,0,0,0-3.88,1,6.66,6.66,0,0,0-2.61,2.7,8.42,8.42,0,0,0-.94,4.1v1.32a8.37,8.37,0,0,0,1.07,4.26,7,7,0,0,0,3,2.8,10.28,10.28,0,0,0,4.59,1,11.12,11.12,0,0,0,4.16-.72,10.22,10.22,0,0,0,3.27-2.14l4.56,5a13.19,13.19,0,0,1-5.11,3.54A18.86,18.86,0,0,1,669,101Z" transform="translate(-8.13 -6.38)"/><path class="cls-1" d="M717.26,101a14.94,14.94,0,0,1-7.53-1.9,13.86,13.86,0,0,1-5.31-5.3,17.63,17.63,0,0,1,0-16.12,13.74,13.74,0,0,1,5.31-5.28,15.13,15.13,0,0,1,7.53-1.87,12.67,12.67,0,0,1,6.55,1.65,10.79,10.79,0,0,1,4.34,5,20.55,20.55,0,0,1,1.54,8.58,21.39,21.39,0,0,1-1.48,8.55,10.56,10.56,0,0,1-4.27,5A12.85,12.85,0,0,1,717.26,101Zm1.49-7a7.42,7.42,0,0,0,3.79-1,7.23,7.23,0,0,0,2.73-2.83,10,10,0,0,0,0-8.77,7.31,7.31,0,0,0-2.73-2.81,7.42,7.42,0,0,0-3.79-1,7.51,7.51,0,0,0-3.85,1,7.31,7.31,0,0,0-2.73,2.81,10,10,0,0,0,0,8.77A7.23,7.23,0,0,0,714.9,93,7.51,7.51,0,0,0,718.75,94Zm7.75,6.6v-6l.17-8.8L726.12,77V59.79h8.58V100.6Z" transform="translate(-8.13 -6.38)"/><path class="cls-1" d="M757.3,101a19.05,19.05,0,0,1-8.88-2,14.39,14.39,0,0,1-8-13.25,15,15,0,0,1,2.06-7.9,14.55,14.55,0,0,1,5.64-5.39A17.67,17.67,0,0,1,764,72.41a13.83,13.83,0,0,1,5.53,5.28,15.94,15.94,0,0,1,2,8.23c0,.33,0,.7-.05,1.12s-.08.82-.11,1.19h-24v-5h19.53l-3.3,1.49a8.29,8.29,0,0,0-.94-4A6.76,6.76,0,0,0,760.11,78a7.53,7.53,0,0,0-3.85-1,7.67,7.67,0,0,0-3.88,1,6.66,6.66,0,0,0-2.61,2.7,8.42,8.42,0,0,0-.94,4.1v1.32a8.37,8.37,0,0,0,1.07,4.26,7,7,0,0,0,3,2.8,10.28,10.28,0,0,0,4.59,1,11,11,0,0,0,4.15-.72A10.26,10.26,0,0,0,765,91.31l4.56,5a13.26,13.26,0,0,1-5.11,3.54A18.86,18.86,0,0,1,757.3,101Z" transform="translate(-8.13 -6.38)"/><path class="cls-1" d="M787.28,101a28.67,28.67,0,0,1-7.29-.91,17.88,17.88,0,0,1-5.53-2.28l2.86-6.16a19.15,19.15,0,0,0,4.81,2.06,19.86,19.86,0,0,0,5.48.8,9,9,0,0,0,4.2-.71,2.2,2.2,0,0,0,1.24-2,1.69,1.69,0,0,0-1-1.57,8.31,8.31,0,0,0-2.56-.8c-1.06-.18-2.23-.37-3.49-.55s-2.54-.43-3.82-.74a12.89,12.89,0,0,1-3.52-1.4,7.22,7.22,0,0,1-2.56-2.53,8.79,8.79,0,0,1,.66-9.08,10.69,10.69,0,0,1,4.7-3.38,19.63,19.63,0,0,1,7.37-1.24,29.82,29.82,0,0,1,6.16.66,16.66,16.66,0,0,1,5.23,1.93l-2.86,6.1a14.53,14.53,0,0,0-4.32-1.73,20.11,20.11,0,0,0-4.21-.47,8.66,8.66,0,0,0-4.18.77,2.26,2.26,0,0,0-1.32,2,1.79,1.79,0,0,0,1,1.65,8.75,8.75,0,0,0,2.56.88c1.06.22,2.23.41,3.49.58a31.12,31.12,0,0,1,3.83.74,14.07,14.07,0,0,1,3.49,1.4,7.4,7.4,0,0,1,2.56,2.48,7.56,7.56,0,0,1,1,4.1,7.68,7.68,0,0,1-1.65,4.86,10.9,10.9,0,0,1-4.76,3.33A20.8,20.8,0,0,1,787.28,101Z" transform="translate(-8.13 -6.38)"/><path class="cls-1" d="M822.69,100.6V62.1h7.37l16.39,27.17h-3.9L858.66,62.1H866l.11,38.5h-8.36l-.06-25.68h1.54L846.34,96.53h-4L829.18,74.92h1.87V100.6Z" transform="translate(-8.13 -6.38)"/><path class="cls-1" d="M889.3,101a19,19,0,0,1-8.88-2,14.38,14.38,0,0,1-8-13.25,15,15,0,0,1,2.07-7.9,14.59,14.59,0,0,1,5.63-5.39A17.69,17.69,0,0,1,896,72.41a13.81,13.81,0,0,1,5.52,5.28,15.85,15.85,0,0,1,2,8.23c0,.33,0,.7-.06,1.12s-.07.82-.11,1.19h-24v-5h19.52l-3.3,1.49a8.29,8.29,0,0,0-.93-4A6.86,6.86,0,0,0,892.1,78a7.51,7.51,0,0,0-3.85-1,7.64,7.64,0,0,0-3.87,1,6.74,6.74,0,0,0-2.62,2.7,8.53,8.53,0,0,0-.93,4.1v1.32a8.37,8.37,0,0,0,1.07,4.26,7,7,0,0,0,3,2.8,10.28,10.28,0,0,0,4.59,1,11,11,0,0,0,4.15-.72,10.22,10.22,0,0,0,3.27-2.14l4.57,5a13.22,13.22,0,0,1-5.12,3.54A18.81,18.81,0,0,1,889.3,101ZM883,67.22l7.42-7.92h9.24l-10,7.92Z" transform="translate(-8.13 -6.38)"/><path class="cls-1" d="M922,101a15,15,0,0,1-7.53-1.9,13.86,13.86,0,0,1-5.31-5.3,17.63,17.63,0,0,1,0-16.12,13.74,13.74,0,0,1,5.31-5.28A15.16,15.16,0,0,1,922,70.57a12.67,12.67,0,0,1,6.55,1.65,10.79,10.79,0,0,1,4.34,5,20.55,20.55,0,0,1,1.54,8.58A21.39,21.39,0,0,1,933,94.36a10.6,10.6,0,0,1-4.26,5A12.89,12.89,0,0,1,922,101Zm1.49-7a7.39,7.39,0,0,0,3.79-1A7.23,7.23,0,0,0,930,90.18a10,10,0,0,0,0-8.77,7.31,7.31,0,0,0-2.73-2.81,7.39,7.39,0,0,0-3.79-1,7.53,7.53,0,0,0-3.85,1,7.21,7.21,0,0,0-2.72,2.81,9.94,9.94,0,0,0,0,8.77A7.13,7.13,0,0,0,919.66,93,7.53,7.53,0,0,0,923.51,94Zm7.75,6.6v-6l.17-8.8L930.88,77V59.79h8.58V100.6Z" transform="translate(-8.13 -6.38)"/><path class="cls-1" d="M962.06,101a19.05,19.05,0,0,1-8.88-2,14.39,14.39,0,0,1-8-13.25,15.11,15.11,0,0,1,2.06-7.9,14.62,14.62,0,0,1,5.64-5.39,17.67,17.67,0,0,1,15.92-.11,13.83,13.83,0,0,1,5.53,5.28,15.94,15.94,0,0,1,2,8.23c0,.33,0,.7-.05,1.12s-.08.82-.11,1.19h-24v-5h19.53l-3.3,1.49a8.18,8.18,0,0,0-.94-4A6.76,6.76,0,0,0,964.87,78a7.53,7.53,0,0,0-3.85-1,7.67,7.67,0,0,0-3.88,1,6.66,6.66,0,0,0-2.61,2.7,8.42,8.42,0,0,0-.94,4.1v1.32a8.28,8.28,0,0,0,1.08,4.26,6.94,6.94,0,0,0,3,2.8,10.28,10.28,0,0,0,4.59,1,11.12,11.12,0,0,0,4.16-.72,10.22,10.22,0,0,0,3.27-2.14l4.56,5a13.19,13.19,0,0,1-5.11,3.54A18.86,18.86,0,0,1,962.06,101Z" transform="translate(-8.13 -6.38)"/><path class="cls-1" d="M996.38,101a18.14,18.14,0,0,1-8.52-2A14.61,14.61,0,0,1,982,93.67a14.91,14.91,0,0,1,5.86-21.15,18.14,18.14,0,0,1,8.52-2,16.32,16.32,0,0,1,8.14,2,11.93,11.93,0,0,1,5.12,5.59L1003,81.68a7.76,7.76,0,0,0-2.88-3.08,7.5,7.5,0,0,0-3.77-1,7.92,7.92,0,0,0-4,1,7.16,7.16,0,0,0-2.78,2.81,10,10,0,0,0,0,8.8,7.13,7.13,0,0,0,2.78,2.8,7.92,7.92,0,0,0,4,1,7.69,7.69,0,0,0,3.77-1,7.47,7.47,0,0,0,2.88-3.11l6.66,3.63a12,12,0,0,1-5.12,5.53A16.32,16.32,0,0,1,996.38,101Z" transform="translate(-8.13 -6.38)"/><path class="cls-1" d="M1018.66,66.89a5.42,5.42,0,0,1-3.85-1.38,4.65,4.65,0,0,1,0-6.82,5.42,5.42,0,0,1,3.85-1.37,5.67,5.67,0,0,1,3.85,1.29,4.2,4.2,0,0,1,1.48,3.33,4.69,4.69,0,0,1-1.45,3.54A5.37,5.37,0,0,1,1018.66,66.89Zm-4.29,33.71V71H1023V100.6Z" transform="translate(-8.13 -6.38)"/><path class="cls-1" d="M1048.91,70.57a13.82,13.82,0,0,1,6.29,1.4,10.23,10.23,0,0,1,4.38,4.29,15.25,15.25,0,0,1,1.59,7.4V100.6h-8.58V85q0-3.57-1.57-5.28a5.68,5.68,0,0,0-4.42-1.7,7.72,7.72,0,0,0-3.66.85,6,6,0,0,0-2.53,2.61,9.88,9.88,0,0,0-.91,4.51V100.6h-8.58V71h8.2v8.2l-1.54-2.48a10.9,10.9,0,0,1,4.56-4.56A14,14,0,0,1,1048.91,70.57Z" transform="translate(-8.13 -6.38)"/><path class="cls-1" d="M1078.88,101a28.53,28.53,0,0,1-7.28-.91,17.77,17.77,0,0,1-5.53-2.28l2.86-6.16a19,19,0,0,0,4.81,2.06,19.84,19.84,0,0,0,5.47.8,9.06,9.06,0,0,0,4.21-.71,2.22,2.22,0,0,0,1.24-2,1.68,1.68,0,0,0-1-1.57,8.24,8.24,0,0,0-2.55-.8c-1.07-.18-2.23-.37-3.5-.55s-2.54-.43-3.82-.74a13.15,13.15,0,0,1-3.52-1.4,7.38,7.38,0,0,1-2.56-2.53,8.79,8.79,0,0,1,.66-9.08,10.72,10.72,0,0,1,4.71-3.38,19.63,19.63,0,0,1,7.37-1.24,29.9,29.9,0,0,1,6.16.66,16.5,16.5,0,0,1,5.22,1.93l-2.86,6.1a14.53,14.53,0,0,0-4.32-1.73,20,20,0,0,0-4.2-.47,8.66,8.66,0,0,0-4.18.77,2.26,2.26,0,0,0-1.32,2,1.79,1.79,0,0,0,1,1.65,8.64,8.64,0,0,0,2.56.88c1.06.22,2.22.41,3.49.58a31,31,0,0,1,3.82.74,14,14,0,0,1,3.5,1.4,7.38,7.38,0,0,1,2.55,2.48,7.56,7.56,0,0,1,1,4.1,7.68,7.68,0,0,1-1.65,4.86,10.84,10.84,0,0,1-4.76,3.33A20.8,20.8,0,0,1,1078.88,101Z" transform="translate(-8.13 -6.38)"/><path class="cls-1" d="M252.68,190.37q-5.91.65-10.87,1c-3.32.21-7.59.47-12.82.75l-.43-6,6-.29a11.36,11.36,0,0,1-2.16-6.63,10.3,10.3,0,0,1,1.3-5.11,9.2,9.2,0,0,1,3.64-3.6,10.74,10.74,0,0,1,5.29-1.29,19.62,19.62,0,0,1,4.07.43,14.68,14.68,0,0,1,3.7,1.29l-1.81,5.76a13.81,13.81,0,0,0-4.95-1.15,4.18,4.18,0,0,0-3.25,1.26,4.72,4.72,0,0,0-1.15,3.28,7,7,0,0,0,.6,2.77,9,9,0,0,0,1.65,2.56q6.87-.51,10.59-.94Z" transform="translate(-8.13 -6.38)"/><path class="cls-1" d="M263.58,188.71q-3.42-3-3.42-10.08V144l6.29-1.73.55.36V178a8.54,8.54,0,0,0,.78,4.07,4.26,4.26,0,0,0,2.51,2,15.84,15.84,0,0,0,4.77.58,3.34,3.34,0,0,1,2.29.61A2.25,2.25,0,0,1,278,187a5.42,5.42,0,0,1-1,3.42,4.18,4.18,0,0,1-3.5,1.33Q267,191.73,263.58,188.71Z" transform="translate(-8.13 -6.38)"/><path class="cls-1" d="M275.07,184.68h5.76a3.53,3.53,0,0,1,2.3.57,2.21,2.21,0,0,1,.65,1.73,5.58,5.58,0,0,1-1,3.39,4.11,4.11,0,0,1-3.53,1.36h-5.76Z" transform="translate(-8.13 -6.38)"/><path class="cls-1" d="M280.83,184.68h5.76a3.53,3.53,0,0,1,2.3.57,2.21,2.21,0,0,1,.65,1.73,5.58,5.58,0,0,1-1,3.39,4.11,4.11,0,0,1-3.53,1.36h-5.76Z" transform="translate(-8.13 -6.38)"/><path class="cls-1" d="M286.59,184.68h5.76a3.53,3.53,0,0,1,2.3.57,2.21,2.21,0,0,1,.65,1.73,5.58,5.58,0,0,1-1,3.39,4.11,4.11,0,0,1-3.53,1.36H285Z" transform="translate(-8.13 -6.38)"/><path class="cls-1" d="M292.34,184.68h5.76a3.54,3.54,0,0,1,2.31.57,2.21,2.21,0,0,1,.65,1.73,5.58,5.58,0,0,1-1,3.39,4.11,4.11,0,0,1-3.53,1.36h-5.76Z" transform="translate(-8.13 -6.38)"/><path class="cls-1" d="M298.1,184.68h5.76a3.54,3.54,0,0,1,2.31.57,2.21,2.21,0,0,1,.65,1.73,5.58,5.58,0,0,1-1,3.39,4.11,4.11,0,0,1-3.53,1.36h-5.76Z" transform="translate(-8.13 -6.38)"/><path class="cls-1" d="M303.86,184.68h5.76a3.56,3.56,0,0,1,2.31.57,2.21,2.21,0,0,1,.64,1.73,5.58,5.58,0,0,1-1,3.39,4.12,4.12,0,0,1-3.53,1.36h-5.76Z" transform="translate(-8.13 -6.38)"/><path class="cls-1" d="M309.62,184.68h5.76a3.58,3.58,0,0,1,2.31.57,2.21,2.21,0,0,1,.64,1.73,5.58,5.58,0,0,1-1,3.39,4.12,4.12,0,0,1-3.53,1.36H308Z" transform="translate(-8.13 -6.38)"/><path class="cls-1" d="M315.38,184.68h5.76a3.53,3.53,0,0,1,2.3.57,2.18,2.18,0,0,1,.65,1.73,5.52,5.52,0,0,1-1,3.39,4.09,4.09,0,0,1-3.52,1.36H313.8Z" transform="translate(-8.13 -6.38)"/><path class="cls-1" d="M321.14,184.68h5.76a3.53,3.53,0,0,1,2.3.57,2.18,2.18,0,0,1,.65,1.73,5.52,5.52,0,0,1-1,3.39,4.09,4.09,0,0,1-3.52,1.36h-5.76Z" transform="translate(-8.13 -6.38)"/><path class="cls-1" d="M352.53,185.22a2.31,2.31,0,0,1,.65,1.76,5.58,5.58,0,0,1-1,3.39,4.11,4.11,0,0,1-3.53,1.36,20.12,20.12,0,0,1-5.69-.86,14.16,14.16,0,0,1-5-2.59,12.68,12.68,0,0,1-4.68,2.59,21.44,21.44,0,0,1-6.47.86h-1.45l1.66-7.12h1.44q4.32,0,5.9-1.16a16.84,16.84,0,0,0,1.34-3.63c.45-1.66,1-4,1.69-6.95l7.2-1.73.72.51c-.58,2.49-1.13,4.63-1.66,6.4a32.52,32.52,0,0,1-1.8,4.76,18.27,18.27,0,0,0,8.5,1.8A3.22,3.22,0,0,1,352.53,185.22Zm-13.18,22.71-6.69-4.68,4.17-6.12,6.7,4.54Z" transform="translate(-8.13 -6.38)"/><path class="cls-1" d="M350.23,184.68H356a3.53,3.53,0,0,1,2.3.57,2.21,2.21,0,0,1,.65,1.73,5.58,5.58,0,0,1-1,3.39,4.11,4.11,0,0,1-3.53,1.36h-5.76Z" transform="translate(-8.13 -6.38)"/><path class="cls-1" d="M356,184.68h5.76a3.54,3.54,0,0,1,2.31.57,2.21,2.21,0,0,1,.65,1.73,5.58,5.58,0,0,1-1,3.39,4.11,4.11,0,0,1-3.53,1.36H354.4Z" transform="translate(-8.13 -6.38)"/><path class="cls-1" d="M361.74,184.68h5.76a3.54,3.54,0,0,1,2.31.57,2.21,2.21,0,0,1,.65,1.73,5.58,5.58,0,0,1-1,3.39,4.12,4.12,0,0,1-3.53,1.36h-5.76Z" transform="translate(-8.13 -6.38)"/><path class="cls-1" d="M367.5,184.68h5.76a3.54,3.54,0,0,1,2.31.57,2.21,2.21,0,0,1,.65,1.73,5.58,5.58,0,0,1-1,3.39,4.12,4.12,0,0,1-3.53,1.36h-5.76Z" transform="translate(-8.13 -6.38)"/><path class="cls-1" d="M373.26,184.68H379a3.56,3.56,0,0,1,2.31.57A2.21,2.21,0,0,1,382,187a5.58,5.58,0,0,1-1,3.39,4.12,4.12,0,0,1-3.53,1.36h-5.76Z" transform="translate(-8.13 -6.38)"/><path class="cls-1" d="M379,184.68h5.76a3.58,3.58,0,0,1,2.31.57,2.21,2.21,0,0,1,.64,1.73,5.52,5.52,0,0,1-1,3.39,4.09,4.09,0,0,1-3.52,1.36h-5.76Z" transform="translate(-8.13 -6.38)"/><path class="cls-1" d="M384.78,184.68h5.76a3.58,3.58,0,0,1,2.31.57,2.21,2.21,0,0,1,.64,1.73,5.52,5.52,0,0,1-1,3.39,4.09,4.09,0,0,1-3.52,1.36H383.2Z" transform="translate(-8.13 -6.38)"/><path class="cls-1" d="M390.54,184.68h5.76a3.53,3.53,0,0,1,2.3.57,2.18,2.18,0,0,1,.65,1.73,5.52,5.52,0,0,1-1,3.39,4.1,4.1,0,0,1-3.52,1.36H389Z" transform="translate(-8.13 -6.38)"/><path class="cls-1" d="M396.3,184.68h5.76a3.53,3.53,0,0,1,2.3.57A2.21,2.21,0,0,1,405,187a5.58,5.58,0,0,1-1,3.39,4.11,4.11,0,0,1-3.53,1.36h-5.76Z" transform="translate(-8.13 -6.38)"/><path class="cls-1" d="M436.66,168.15a12.89,12.89,0,0,1,5.28,10.26,12.18,12.18,0,0,1-1.29,5.58,13.48,13.48,0,0,1-3.24,4.22,12.91,12.91,0,0,1-4.32,2.26,26.42,26.42,0,0,1-5.83,1q-3.39.26-8.86.25H400.47l1.66-7.12h2.95l3.17-3V144l6.42-1.73.49.36-.07,32.54a54.29,54.29,0,0,1,8.94-6.62,14.72,14.72,0,0,1,7.06-2.16A9.37,9.37,0,0,1,436.66,168.15Zm-1.3,13.47a8.05,8.05,0,0,0,.25-2.05,6.74,6.74,0,0,0-.71-2.92,6.85,6.85,0,0,0-2-2.45,4.44,4.44,0,0,0-2.81-1q-2.79,0-7,2.92a88.23,88.23,0,0,0-10.06,8.46h5.78c3.57,0,6.33,0,8.31-.11a44,44,0,0,0,4.67-.36,9.26,9.26,0,0,0,2.85-.83A6.35,6.35,0,0,0,435.36,181.62Z" transform="translate(-8.13 -6.38)"/><path class="cls-1" d="M459.59,147.45q-5.7.72-13.9,1l-.43-4.46c1.44,0,2.54,0,3.31-.07a6.77,6.77,0,0,1-1.08-2.06,7.27,7.27,0,0,1-.36-2.26,5.8,5.8,0,0,1,1.62-4.29,6.08,6.08,0,0,1,4.5-1.62,14.11,14.11,0,0,1,5.18,1.08L457.28,139a11.43,11.43,0,0,0-3.24-.72,2.41,2.41,0,0,0-2.59,2.52,3.78,3.78,0,0,0,.36,1.58,4,4,0,0,0,1,1.37q4.46-.28,6.41-.5Zm12.67,25q3.81,5.4,3.81,9.72a9.71,9.71,0,0,1-1.36,5.36,8.19,8.19,0,0,1-4.43,3.17,25.62,25.62,0,0,1-8.1,1h-9.87l.36-6.84a59.62,59.62,0,0,0,7.2-5.36,32.57,32.57,0,0,0,5.48-6.16,90,90,0,0,0-7.49-6.48c-2.84-2.2-5.64-4.22-8.43-6l2.45-7.13.43-.22a155.75,155.75,0,0,1,15.92,14.11,25.47,25.47,0,0,0,1.22-8.06,49.78,49.78,0,0,0-.65-7.6,58.94,58.94,0,0,0-1.29-6.44l6.38-3.24.58.14q.66,3.61,1.24,7.78a52.46,52.46,0,0,1,.58,7.13A29.3,29.3,0,0,1,472.26,172.44Zm-3.46,4.89a44,44,0,0,1-8.06,7.28h2a27.41,27.41,0,0,0,5.09-.36,6.06,6.06,0,0,0,2.74-1.16A12.86,12.86,0,0,0,468.8,177.33Z" transform="translate(-8.13 -6.38)"/><path class="cls-1" d="M486.28,192.17l-.49-.29V144l6.42-1.73.49.36-.07,48.17Z" transform="translate(-8.13 -6.38)"/><path class="cls-1" d="M550,185.22a2.34,2.34,0,0,1,.63,1.76,5.31,5.31,0,0,1-1.08,3.39,4.32,4.32,0,0,1-3.6,1.36,18.63,18.63,0,0,1-7.23-1.22,8.67,8.67,0,0,1-4.43-4.1,19.24,19.24,0,0,1-5.9.86,19,19,0,0,1-6.56-1,9.6,9.6,0,0,1-4.32-3A7.24,7.24,0,0,1,516,178.7a10.81,10.81,0,0,1,1.94-5.87,20.45,20.45,0,0,1,5.77-5.58,36.41,36.41,0,0,1,9.14-4.32v-3.38l6.29-2.74.55.15v22a6.55,6.55,0,0,0,.78,3.56,3.87,3.87,0,0,0,2.44,1.62,19.88,19.88,0,0,0,4.77.44A3.31,3.31,0,0,1,550,185.22ZM526,152l-6.48-4.54,4-6,6.48,4.46Zm6.91,28V169.92a28.7,28.7,0,0,0-7.62,3.13q-3.09,1.9-3.76,3.92a4.6,4.6,0,0,0,2.79,2.49,12.11,12.11,0,0,0,4.65.9A23.17,23.17,0,0,0,532.88,180Zm3.24-28-6.48-4.54,4-6,6.48,4.46Z" transform="translate(-8.13 -6.38)"/><path class="cls-1" d="M547.71,184.68h5.76a3.53,3.53,0,0,1,2.3.57,2.18,2.18,0,0,1,.65,1.73,5.52,5.52,0,0,1-1,3.39,4.09,4.09,0,0,1-3.52,1.36h-5.76Z" transform="translate(-8.13 -6.38)"/><path class="cls-1" d="M553.47,184.68h5.76a3.53,3.53,0,0,1,2.3.57,2.18,2.18,0,0,1,.65,1.73,5.52,5.52,0,0,1-1,3.39,4.09,4.09,0,0,1-3.52,1.36h-5.76Z" transform="translate(-8.13 -6.38)"/><path class="cls-1" d="M559.23,184.68H565a3.53,3.53,0,0,1,2.3.57,2.21,2.21,0,0,1,.65,1.73,5.58,5.58,0,0,1-1,3.39,4.11,4.11,0,0,1-3.53,1.36h-5.76Z" transform="translate(-8.13 -6.38)"/><path class="cls-1" d="M565,184.68h5.76a3.53,3.53,0,0,1,2.3.57,2.21,2.21,0,0,1,.65,1.73,5.58,5.58,0,0,1-1,3.39,4.11,4.11,0,0,1-3.53,1.36H563.4Z" transform="translate(-8.13 -6.38)"/><path class="cls-1" d="M570.75,184.68h5.76a3.53,3.53,0,0,1,2.3.57,2.21,2.21,0,0,1,.65,1.73,5.58,5.58,0,0,1-1,3.39,4.11,4.11,0,0,1-3.53,1.36h-5.76Z" transform="translate(-8.13 -6.38)"/><path class="cls-1" d="M576.51,184.68h5.76a3.53,3.53,0,0,1,2.3.57,2.21,2.21,0,0,1,.65,1.73,5.58,5.58,0,0,1-1,3.39,4.11,4.11,0,0,1-3.53,1.36h-5.76Z" transform="translate(-8.13 -6.38)"/><path class="cls-1" d="M582.27,184.68H588a3.54,3.54,0,0,1,2.31.57A2.21,2.21,0,0,1,591,187a5.58,5.58,0,0,1-1,3.39,4.11,4.11,0,0,1-3.53,1.36h-5.76Z" transform="translate(-8.13 -6.38)"/><path class="cls-1" d="M588,184.68h5.76a3.54,3.54,0,0,1,2.31.57,2.21,2.21,0,0,1,.65,1.73,5.58,5.58,0,0,1-1,3.39,4.11,4.11,0,0,1-3.53,1.36h-5.76Z" transform="translate(-8.13 -6.38)"/><path class="cls-1" d="M593.78,184.68h5.76a3.56,3.56,0,0,1,2.31.57,2.21,2.21,0,0,1,.64,1.73,5.58,5.58,0,0,1-1,3.39,4.12,4.12,0,0,1-3.53,1.36H592.2Z" transform="translate(-8.13 -6.38)"/><path class="cls-1" d="M599.54,184.68h5.76a3.56,3.56,0,0,1,2.31.57,2.21,2.21,0,0,1,.64,1.73,5.58,5.58,0,0,1-1,3.39,4.12,4.12,0,0,1-3.53,1.36H598Z" transform="translate(-8.13 -6.38)"/><path class="cls-1" d="M605.41,184.61h.66q5.89,0,7.51-.72a6.77,6.77,0,0,0,.22-1.73,14.47,14.47,0,0,0-1-4.9q-1-2.73-2.88-6.62l5.84-4.61h.69a41.31,41.31,0,0,1,2.72,7.49,26.32,26.32,0,0,1,1,6.26,13.82,13.82,0,0,1-.93,5,12,12,0,0,1-2.67,4.14,9,9,0,0,1-4.24,2.19,36.44,36.44,0,0,1-7.78.61h-.79ZM615,207.93l-6.69-4.68,4.17-6.12,6.7,4.54Z" transform="translate(-8.13 -6.38)"/><path class="cls-1" d="M632.19,188.71q-3.42-3-3.42-10.08V144l6.29-1.73.55.36V178a8.54,8.54,0,0,0,.78,4.07,4.23,4.23,0,0,0,2.51,2,15.84,15.84,0,0,0,4.77.58,3.36,3.36,0,0,1,2.29.61,2.28,2.28,0,0,1,.67,1.76,5.37,5.37,0,0,1-1,3.42,4.16,4.16,0,0,1-3.49,1.33Q635.61,191.73,632.19,188.71Z" transform="translate(-8.13 -6.38)"/><path class="cls-1" d="M643.68,184.68h5.75a3.54,3.54,0,0,1,2.31.57,2.21,2.21,0,0,1,.65,1.73,5.58,5.58,0,0,1-1,3.39,4.11,4.11,0,0,1-3.53,1.36h-5.76Z" transform="translate(-8.13 -6.38)"/><path class="cls-1" d="M649.43,184.68h5.76a3.54,3.54,0,0,1,2.31.57,2.21,2.21,0,0,1,.65,1.73,5.58,5.58,0,0,1-1,3.39,4.11,4.11,0,0,1-3.53,1.36h-5.76Z" transform="translate(-8.13 -6.38)"/><path class="cls-1" d="M655.19,184.68H661a3.56,3.56,0,0,1,2.31.57,2.21,2.21,0,0,1,.64,1.73,5.58,5.58,0,0,1-1,3.39,4.12,4.12,0,0,1-3.53,1.36h-5.76Z" transform="translate(-8.13 -6.38)"/><path class="cls-1" d="M661,184.68h5.76a3.56,3.56,0,0,1,2.31.57,2.21,2.21,0,0,1,.64,1.73,5.58,5.58,0,0,1-1,3.39,4.12,4.12,0,0,1-3.53,1.36h-5.76Z" transform="translate(-8.13 -6.38)"/><path class="cls-1" d="M666.71,184.68h5.76a3.58,3.58,0,0,1,2.31.57,2.21,2.21,0,0,1,.64,1.73,5.58,5.58,0,0,1-1,3.39,4.12,4.12,0,0,1-3.53,1.36h-5.76Z" transform="translate(-8.13 -6.38)"/><path class="cls-1" d="M672.47,184.68h5.76a3.53,3.53,0,0,1,2.3.57,2.18,2.18,0,0,1,.65,1.73,5.52,5.52,0,0,1-1,3.39,4.09,4.09,0,0,1-3.52,1.36h-5.76Z" transform="translate(-8.13 -6.38)"/><path class="cls-1" d="M678.23,184.68H684a3.53,3.53,0,0,1,2.3.57,2.18,2.18,0,0,1,.65,1.73,5.52,5.52,0,0,1-1,3.39,4.09,4.09,0,0,1-3.52,1.36h-5.76Z" transform="translate(-8.13 -6.38)"/><path class="cls-1" d="M684,184.68h5.76a3.53,3.53,0,0,1,2.3.57,2.21,2.21,0,0,1,.65,1.73,5.58,5.58,0,0,1-1,3.39,4.11,4.11,0,0,1-3.53,1.36H682.4Z" transform="translate(-8.13 -6.38)"/><path class="cls-1" d="M689.75,184.68h5.76a3.53,3.53,0,0,1,2.3.57,2.21,2.21,0,0,1,.65,1.73,5.58,5.58,0,0,1-1,3.39,4.11,4.11,0,0,1-3.53,1.36h-5.76Z" transform="translate(-8.13 -6.38)"/><path class="cls-1" d="M729.89,185.22a2.41,2.41,0,0,1,.61,1.76,5.58,5.58,0,0,1-1,3.39,4.11,4.11,0,0,1-3.53,1.36h-4.53a27,27,0,0,1-5.44-.57,33.14,33.14,0,0,1-5.36-1.59,35.56,35.56,0,0,1-12.82,2.16h-3.89l1.66-7.12h7.34a11,11,0,0,1-3.17-7.35,13.64,13.64,0,0,1,1.7-6.44,14.82,14.82,0,0,1,4.46-5.22,9.69,9.69,0,0,1,5.8-2,8.15,8.15,0,0,1,5,1.77,12.6,12.6,0,0,1,3.71,4.46,11.82,11.82,0,0,1,1.37,5.36,13.74,13.74,0,0,1-3.32,9.22,37.59,37.59,0,0,0,4,.22h5.11A3.22,3.22,0,0,1,729.89,185.22Zm-22.72-28.91-6.48-4.54,4-6,6.48,4.46Zm-.45,23.54a12,12,0,0,0,4.32,2.74,11.18,11.18,0,0,0,3.86-2.84,5.59,5.59,0,0,0,1.41-3.64,4.82,4.82,0,0,0-.84-2.66,7.11,7.11,0,0,0-2.1-2.13,4.53,4.53,0,0,0-2.48-.83,4.82,4.82,0,0,0-2.64.87,6.68,6.68,0,0,0-2.18,2.27,5.36,5.36,0,0,0-.84,2.77A4.9,4.9,0,0,0,706.72,179.85Zm10.6-23.54-6.48-4.54,4-6,6.48,4.46Z" transform="translate(-8.13 -6.38)"/><path class="cls-1" d="M727.55,184.68h5.76a3.53,3.53,0,0,1,2.3.57,2.21,2.21,0,0,1,.65,1.73,5.58,5.58,0,0,1-1,3.39,4.11,4.11,0,0,1-3.53,1.36H726Z" transform="translate(-8.13 -6.38)"/><path class="cls-1" d="M733.31,184.68h5.75a3.54,3.54,0,0,1,2.31.57A2.21,2.21,0,0,1,742,187a5.58,5.58,0,0,1-1,3.39,4.11,4.11,0,0,1-3.53,1.36h-5.76Z" transform="translate(-8.13 -6.38)"/><path class="cls-1" d="M739.06,184.68h5.76a3.54,3.54,0,0,1,2.31.57,2.21,2.21,0,0,1,.65,1.73,5.58,5.58,0,0,1-1,3.39,4.11,4.11,0,0,1-3.53,1.36h-5.76Z" transform="translate(-8.13 -6.38)"/><path class="cls-1" d="M744.82,184.68h5.76a3.56,3.56,0,0,1,2.31.57,2.21,2.21,0,0,1,.64,1.73,5.58,5.58,0,0,1-1,3.39,4.12,4.12,0,0,1-3.53,1.36h-5.76Z" transform="translate(-8.13 -6.38)"/><path class="cls-1" d="M750.58,184.68h5.76a3.56,3.56,0,0,1,2.31.57,2.21,2.21,0,0,1,.64,1.73,5.58,5.58,0,0,1-1,3.39,4.12,4.12,0,0,1-3.53,1.36H749Z" transform="translate(-8.13 -6.38)"/><path class="cls-1" d="M756.34,184.68h5.76a3.58,3.58,0,0,1,2.31.57,2.21,2.21,0,0,1,.64,1.73,5.58,5.58,0,0,1-1,3.39,4.12,4.12,0,0,1-3.53,1.36h-5.76Z" transform="translate(-8.13 -6.38)"/><path class="cls-1" d="M762.21,184.61h.66c3.92,0,6.43-.24,7.51-.72a6.77,6.77,0,0,0,.22-1.73,14.47,14.47,0,0,0-1-4.9q-1-2.73-2.88-6.62l5.84-4.61h.69a41.31,41.31,0,0,1,2.72,7.49,26.32,26.32,0,0,1,1,6.26,13.82,13.82,0,0,1-.93,5,12,12,0,0,1-2.67,4.14,9,9,0,0,1-4.25,2.19,36.33,36.33,0,0,1-7.77.61h-.79Zm9.11-25.56-6.7-4.68,4.18-6.19,6.69,4.6Z" transform="translate(-8.13 -6.38)"/><path class="cls-1" d="M882.91,185.22a2.27,2.27,0,0,1,.65,1.76,5.52,5.52,0,0,1-1,3.39,4.09,4.09,0,0,1-3.52,1.36,20.55,20.55,0,0,1-5.37-.75,14.26,14.26,0,0,1-4.86-2.34q-3.16,3.09-8.85,3.09a20,20,0,0,1-8.64-1.8,10.14,10.14,0,0,1-6.23,1.8,9.72,9.72,0,0,1-2.79-.43,11.1,11.1,0,0,1-2.72-1.22,17.44,17.44,0,0,1-4.05,8.53,18.15,18.15,0,0,1-7.5,4.93,29.21,29.21,0,0,1-9.88,1.59,21.57,21.57,0,0,1-9.41-1.88,13.19,13.19,0,0,1-5.9-5.22,15,15,0,0,1-2-7.81,29.84,29.84,0,0,1,.38-4.57,18.54,18.54,0,0,1,.89-3.78l5.57-2,.65.29a40,40,0,0,0-.65,6.7c0,3.6.9,6.36,2.68,8.28s4.87,2.88,9.25,2.88q8.92,0,13-5.26a9.05,9.05,0,0,0,.64-3.45,17.84,17.84,0,0,0-1-5.8q-1.05-3.06-3.13-7.67l6.26-4.46h.43a26.08,26.08,0,0,1,.94,2.81c.38,1.24.82,2.53,1.3,3.85a21.43,21.43,0,0,0,1.29,3,6.38,6.38,0,0,0,2.41,2.73,6.94,6.94,0,0,0,3.57.87,8.86,8.86,0,0,0,1.8-.18,3.7,3.7,0,0,0,1.37-.54,12.42,12.42,0,0,0,1.26-3.1c.5-1.63,1-3.36,1.54-5.18l7.2-1.16.29.29q-2,6.27-3.24,9.15a21.76,21.76,0,0,0,5.36.72,13.2,13.2,0,0,0,2.61-.26,7.35,7.35,0,0,0,2.08-.68,9.57,9.57,0,0,0,.64-2.16,17.84,17.84,0,0,0,.26-3.24,33.6,33.6,0,0,0-.44-5.11l6.52-2.52.55.21a37.65,37.65,0,0,1,.21,3.89,29.35,29.35,0,0,1-1,8.14,19.3,19.3,0,0,0,8.42,1.73A3.2,3.2,0,0,1,882.91,185.22Z" transform="translate(-8.13 -6.38)"/><path class="cls-1" d="M880.61,184.68h5.76a3.53,3.53,0,0,1,2.3.57,2.18,2.18,0,0,1,.65,1.73,5.52,5.52,0,0,1-1,3.39,4.09,4.09,0,0,1-3.52,1.36H879Z" transform="translate(-8.13 -6.38)"/><path class="cls-1" d="M886.37,184.68h5.76a3.53,3.53,0,0,1,2.3.57,2.21,2.21,0,0,1,.65,1.73,5.58,5.58,0,0,1-1,3.39,4.11,4.11,0,0,1-3.53,1.36h-5.76Z" transform="translate(-8.13 -6.38)"/><path class="cls-1" d="M892.13,184.68h5.76a3.53,3.53,0,0,1,2.3.57,2.21,2.21,0,0,1,.65,1.73,5.58,5.58,0,0,1-1,3.39,4.11,4.11,0,0,1-3.53,1.36h-5.76Z" transform="translate(-8.13 -6.38)"/><path class="cls-1" d="M897.89,184.68h5.76a3.53,3.53,0,0,1,2.3.57,2.21,2.21,0,0,1,.65,1.73,5.58,5.58,0,0,1-1,3.39,4.11,4.11,0,0,1-3.53,1.36H896.3Z" transform="translate(-8.13 -6.38)"/><path class="cls-1" d="M903.65,184.68h5.76a3.53,3.53,0,0,1,2.3.57,2.21,2.21,0,0,1,.65,1.73,5.58,5.58,0,0,1-1,3.39,4.11,4.11,0,0,1-3.53,1.36h-5.76Z" transform="translate(-8.13 -6.38)"/><path class="cls-1" d="M909.4,184.68h5.76a3.54,3.54,0,0,1,2.31.57,2.21,2.21,0,0,1,.65,1.73,5.58,5.58,0,0,1-1,3.39,4.11,4.11,0,0,1-3.53,1.36h-5.76Z" transform="translate(-8.13 -6.38)"/><path class="cls-1" d="M915.16,184.68h5.76a3.54,3.54,0,0,1,2.31.57,2.21,2.21,0,0,1,.65,1.73,5.58,5.58,0,0,1-1,3.39,4.12,4.12,0,0,1-3.53,1.36h-5.76Z" transform="translate(-8.13 -6.38)"/><path class="cls-1" d="M920.92,184.68h5.76a3.54,3.54,0,0,1,2.31.57,2.21,2.21,0,0,1,.65,1.73,5.58,5.58,0,0,1-1,3.39,4.12,4.12,0,0,1-3.53,1.36h-5.76Z" transform="translate(-8.13 -6.38)"/><path class="cls-1" d="M926.68,184.68h5.76a3.56,3.56,0,0,1,2.31.57,2.21,2.21,0,0,1,.64,1.73,5.58,5.58,0,0,1-1,3.39,4.12,4.12,0,0,1-3.53,1.36H925.1Z" transform="translate(-8.13 -6.38)"/><path class="cls-1" d="M932.44,184.68h5.76a3.58,3.58,0,0,1,2.31.57,2.21,2.21,0,0,1,.64,1.73,5.52,5.52,0,0,1-1,3.39,4.09,4.09,0,0,1-3.52,1.36h-5.76Z" transform="translate(-8.13 -6.38)"/><path class="cls-1" d="M938.2,184.68H944a3.53,3.53,0,0,1,2.3.57,2.18,2.18,0,0,1,.65,1.73,5.52,5.52,0,0,1-1,3.39,4.09,4.09,0,0,1-3.52,1.36h-5.76Z" transform="translate(-8.13 -6.38)"/><path class="cls-1" d="M967.85,185.22a2.28,2.28,0,0,1,.66,1.76,5.52,5.52,0,0,1-1,3.39,4.11,4.11,0,0,1-3.53,1.36,14.28,14.28,0,0,1-5.11-.93,8.21,8.21,0,0,1-4-3.24,10,10,0,0,1-4.78,3.24,26.26,26.26,0,0,1-7.74.93l1.65-7.12a27.59,27.59,0,0,0,3.6-.22,6.79,6.79,0,0,0,2.74-.94,25.42,25.42,0,0,0,.5-5.54V144l6.22-1.73.62.36v34.78a10.06,10.06,0,0,0,.85,4.71,4,4,0,0,0,2.44,2,17.08,17.08,0,0,0,4.55.47A3.39,3.39,0,0,1,967.85,185.22Z" transform="translate(-8.13 -6.38)"/><path class="cls-1" d="M965.56,184.68h5.76a3.53,3.53,0,0,1,2.3.57,2.21,2.21,0,0,1,.65,1.73,5.58,5.58,0,0,1-1,3.39,4.11,4.11,0,0,1-3.53,1.36H964Z" transform="translate(-8.13 -6.38)"/><path class="cls-1" d="M1018.09,185.22a2.41,2.41,0,0,1,.6,1.76q0,4.76-4.39,4.75a37.51,37.51,0,0,1-8.64-.82,14.06,14.06,0,0,1-5.44-2.45,13.29,13.29,0,0,1-3.41-4.14q-2.38.8-5.69,2.16a85,85,0,0,1-11.81,4.1,39.81,39.81,0,0,1-9.58,1.15l1.59-7.12a43.74,43.74,0,0,0,8.17-.72,72.83,72.83,0,0,0,9.61-2.74c3.41-1.15,6.36-2,8.86-2.59l-1.52-.72c-.62-.29-1.39-.67-2.3-1.15a54.71,54.71,0,0,0-7-3,16.56,16.56,0,0,0-5-.86,20.19,20.19,0,0,0-3.82.36,28.84,28.84,0,0,0-3.82,1l-.28-.29,2.59-6.48a13.84,13.84,0,0,1,3-1.05,15.41,15.41,0,0,1,3.39-.39,15.1,15.1,0,0,1,4.86.93,65,65,0,0,1,7.16,3.17,64.68,64.68,0,0,0,8.79,3.78,24.6,24.6,0,0,0,6.55,1.26l-1.33,6.41a39.15,39.15,0,0,0-5.59.86,9,9,0,0,0,4.33,1.77,51.27,51.27,0,0,0,7.95.47A3,3,0,0,1,1018.09,185.22Zm-28.41,22.71-6.7-4.68,4.18-6.12,6.69,4.54Z" transform="translate(-8.13 -6.38)"/><path class="cls-1" d="M1041,169.85a16.32,16.32,0,0,1,4.61,6,18.59,18.59,0,0,1,1.73,7.85,9.86,9.86,0,0,1-2,6.45,7.09,7.09,0,0,1-5.8,2.41,21.09,21.09,0,0,1-6.8-1.3,30.73,30.73,0,0,1-7.53-3.89,10.14,10.14,0,0,1-4.57,3.39,19.68,19.68,0,0,1-6.51.93l1.58-7.12a6.56,6.56,0,0,0,2.59-.44,4.74,4.74,0,0,0,1.84-1.44,20.29,20.29,0,0,0,1.91-2.95q.28-.57,2.3-4.14a20.74,20.74,0,0,1,4.75-5.83,8.94,8.94,0,0,1,5.76-2.27A9.62,9.62,0,0,1,1041,169.85Zm-.76,10.76a15.42,15.42,0,0,0-2.41-4.36,4.07,4.07,0,0,0-3-1.87,3.06,3.06,0,0,0-2.08.9,10.94,10.94,0,0,0-1.85,2.31c-.58.93-1.39,2.36-2.41,4.28a31.94,31.94,0,0,0,5.29,2.7,12.13,12.13,0,0,0,4.26,1,5,5,0,0,0,3-.79A10,10,0,0,0,1040.25,180.61Z" transform="translate(-8.13 -6.38)"/></svg>